# xmcd CD database file
#
# Track frame offsets:
#	150
#	15871
#	36429
#	64639
#	75104
#
# Disc length: 1136 seconds
#
# Revision: 0
# Processed by: cddbd v1.5.2PL0 Copyright (c) Steve Scherf et al.
# Submitted via: CDex 1.50beta10
#
DISCID=28046e05
DTITLE=Maniere des Bohemiens - E P
DYEAR=2010
DGENRE=Jazz
TTITLE0=2 Guitars
TTITLE1=Take The A Train
TTITLE2=Blue Drag
TTITLE3=Romanian Train Song
TTITLE4=Bessarbyanka
EXTD=YEAR: 2010
EXTT0=
EXTT1=
EXTT2=
EXTT3=
EXTT4=
PLAYORDER=
